<?xml version="1.0" encoding="UTF-8" standalone="no"?>
<svg width="540px" height="54px" viewBox="0 0 540 54" version="1.1" xmlns="http://www.w3.org/2000/svg" xmlns:xlink="http://www.w3.org/1999/xlink" xmlns:sketch="http://www.bohemiancoding.com/sketch/ns">
    <!-- Generator: Sketch Beta 3.2 (9961) - http://www.bohemiancoding.com/sketch -->
    <title>head_title</title>
    <desc>Created with Sketch Beta.</desc>
    <defs></defs>
    <g id="未登录" stroke="none" stroke-width="1" fill="none" fill-rule="evenodd" sketch:type="MSPage">
        <g id="slice" sketch:type="MSArtboardGroup" transform="translate(-42.000000, -346.000000)" fill="#FFFFFF">
            <path d="M88.656,359.032 C87.216,357.256 84.432,354.232 82.224,352.024 L80.448,353.128 C82.656,355.384 85.488,358.552 86.832,360.376 L88.656,359.032 Z M84.336,372.664 C82.512,377.368 79.584,381.208 76.128,384.28 C72.384,381.064 69.504,377.176 67.44,372.664 L84.336,372.664 Z M85.824,370.264 L85.44,370.408 L67.968,370.408 C68.736,368.584 69.408,366.616 69.936,364.6 L92.208,364.6 L92.208,362.344 L70.608,362.344 C71.52,358.888 72.144,355.24 72.72,351.352 L70.128,350.92 C69.6,354.952 68.928,358.792 67.968,362.344 L58.128,362.344 C59.472,359.8 60.768,356.44 61.728,353.128 L59.232,352.552 C58.464,356.2 56.64,360.136 56.064,361.144 C55.584,362.104 55.152,362.824 54.528,362.968 C54.816,363.496 55.2,364.744 55.344,365.272 C55.776,364.84 57.168,364.6 60.432,364.6 L67.344,364.6 C64.224,375.016 58.8,383.224 49.872,389.032 C50.448,389.416 51.264,390.184 51.6,390.664 C58.08,386.488 62.736,381.064 66.096,374.584 C68.16,378.856 70.992,382.6 74.4,385.672 C70.032,389.032 64.896,391.336 59.712,392.68 C60.144,393.16 60.672,394.072 60.912,394.648 C66.336,393.064 71.664,390.664 76.176,387.16 C80.64,390.664 86.064,393.208 92.4,394.696 C92.688,394.072 93.312,393.16 93.792,392.68 C87.6,391.432 82.224,389.032 77.856,385.672 C81.984,381.976 85.392,377.176 87.36,371.032 L85.824,370.264 Z M119.088,355.576 L135.024,355.576 L135.024,378.856 L137.28,378.856 L137.28,353.464 L116.88,353.464 L116.88,378.856 L119.088,378.856 L119.088,355.576 Z M114.768,382.024 C112.512,382.744 110.208,383.416 108.048,384.088 L108.048,370.648 L113.376,370.648 L113.376,368.488 L108.048,368.488 L108.048,356.776 L114.336,356.776 L114.336,354.568 L99.12,354.568 L99.12,356.776 L105.84,356.776 L105.84,368.488 L99.84,368.488 L99.84,370.648 L105.84,370.648 L105.84,384.808 C103.152,385.576 100.656,386.296 98.688,386.872 L99.312,389.128 C103.632,387.784 109.488,385.912 115.056,384.184 L114.768,382.024 Z M127.92,360.328 L125.76,360.328 L125.76,370.552 C125.76,378.088 124.08,386.824 112.128,392.92 C112.608,393.304 113.328,394.216 113.568,394.648 C125.952,388.312 127.92,378.616 127.92,370.6 L127.92,360.328 Z M132,391.192 C130.464,391.192 130.032,390.856 130.032,389.512 L130.032,377.752 L127.872,377.752 L127.872,389.704 C127.872,392.344 128.976,393.064 131.856,393.064 L136.8,393.064 C140.496,393.064 140.88,391.336 141.264,383.752 C140.64,383.608 139.92,383.224 139.248,382.792 C139.008,389.944 138.72,391.192 136.8,391.192 L132,391.192 Z M159.792,391.48 C156.432,387.688 152.304,383.56 148.8,380.776 L146.832,382.552 C150.288,385.288 154.416,389.368 157.632,393.304 L159.792,391.48 Z M232.176,351.832 C224.208,353.464 209.232,354.568 197.04,355.096 C197.232,355.672 197.52,356.536 197.616,357.16 C210,356.728 224.928,355.576 234.096,353.848 L232.176,351.832 Z M225.6,370.84 C228.048,367.72 231.12,362.872 233.376,358.936 L231.12,357.976 C229.392,361.576 226.176,366.808 223.776,369.88 L225.6,370.84 Z M217.728,367.24 C217.392,364.84 216,361.048 214.56,358.216 L212.448,358.744 C213.84,361.624 215.088,365.464 215.424,367.864 L217.728,367.24 Z M206.256,368.632 C205.536,366.136 203.472,362.536 201.408,359.752 L199.44,360.568 C201.504,363.304 203.472,367.048 204.144,369.544 L206.256,368.632 Z M236.976,375.592 L236.976,373.336 L217.104,373.336 L217.104,368.776 L214.752,368.776 L214.752,373.336 L195.12,373.336 L195.12,375.592 L212.688,375.592 C208.224,381.736 200.688,387.688 194.112,390.568 C194.688,391 195.408,391.864 195.792,392.488 C202.416,389.272 210.096,383.08 214.752,376.456 L214.752,394.504 L217.104,394.504 L217.104,376.36 C221.904,382.888 229.68,389.224 236.352,392.44 C236.784,391.816 237.456,390.904 238.032,390.472 C231.36,387.64 223.68,381.64 219.072,375.592 L236.976,375.592 Z M263.76,362.392 L250.992,362.392 L250.992,358.456 L263.76,358.456 L263.76,362.392 Z M263.76,368.152 L250.992,368.152 L250.992,364.264 L263.76,364.264 L263.76,368.152 Z M263.76,374.104 L250.992,374.104 L250.992,370.024 L263.76,370.024 L263.76,374.104 Z M248.736,377.704 L250.992,377.704 L250.992,376.12 L283.824,376.12 L283.824,374.104 L266.016,374.104 L266.016,370.024 L280.416,370.024 L280.416,368.152 L266.016,368.152 L266.016,364.264 L280.224,364.264 L280.224,362.392 L266.016,362.392 L266.016,358.456 L282.048,358.456 L282.048,356.44 L267.6,356.44 C266.976,354.904 265.68,352.648 264.576,350.92 L262.512,351.544 C263.472,353.032 264.48,354.952 265.104,356.44 L252.336,356.44 C253.536,354.712 254.496,352.936 255.36,351.352 L252.912,350.92 C250.896,355.24 247.056,360.76 241.824,364.984 C242.4,365.224 243.12,365.896 243.552,366.376 C245.472,364.792 247.2,363.064 248.736,361.24 L248.736,377.704 Z M285.264,382.36 L285.264,380.296 L265.056,380.296 L265.056,376.648 L262.8,376.648 L262.8,380.296 L242.832,380.296 L242.832,382.36 L260.208,382.36 C255.6,386.392 248.16,390.136 241.92,391.912 C242.448,392.344 243.072,393.208 243.504,393.832 C249.936,391.72 258,387.448 262.8,382.744 L262.8,394.504 L265.056,394.504 L265.056,382.792 C269.856,387.304 277.968,391.432 284.688,393.4 C285.024,392.824 285.648,391.96 286.176,391.432 C279.744,389.8 272.256,386.296 267.6,382.36 L285.264,382.36 Z M301.536,351.208 C298.656,358.744 294,366.184 289.056,370.984 C289.488,371.416 290.256,372.568 290.448,373.048 C292.512,370.984 294.48,368.584 296.304,365.848 L296.304,394.456 L298.512,394.456 L298.512,362.392 C300.48,359.08 302.256,355.48 303.696,351.832 L301.536,351.208 Z M310.272,370.984 C308.784,376.936 306.336,382.84 303.216,386.68 C303.792,387.016 304.8,387.64 305.232,387.976 C308.256,383.896 310.896,377.848 312.528,371.416 L310.272,370.984 Z M330.912,362.824 C330.528,365.464 329.952,368.344 329.52,370.216 L331.488,370.6 C332.112,368.248 332.976,364.264 333.6,361 L332.112,360.52 L331.632,360.616 L310.416,360.616 C311.424,357.784 312.336,354.76 313.008,351.736 L310.752,351.256 C309.168,358.504 306.528,365.608 302.976,370.264 C303.552,370.6 304.512,371.368 304.896,371.656 C306.624,369.208 308.256,366.232 309.6,362.824 L318,362.824 L318,391.384 C318,392.008 317.808,392.2 317.184,392.2 C316.56,392.248 314.448,392.296 312.048,392.2 C312.384,392.92 312.72,393.88 312.864,394.552 C315.84,394.552 317.712,394.504 318.816,394.12 C319.872,393.688 320.256,392.968 320.256,391.384 L320.256,362.824 L330.912,362.824 Z M324.816,371.368 C327.6,376.456 330.24,383.368 331.056,387.784 L333.264,387.064 C332.4,382.6 329.76,375.88 326.832,370.696 L324.816,371.368 Z M358.752,360.808 L343.488,360.808 L343.488,362.728 L376.752,362.728 L376.752,360.808 L361.104,360.808 L361.104,356.776 L380.256,356.776 L380.256,354.808 L361.104,354.808 L361.104,351.016 L358.752,351.016 L358.752,354.808 L339.984,354.808 L339.984,356.776 L358.752,356.776 L358.752,360.808 Z M372.672,385.048 L372.672,390.952 L347.28,390.952 L347.28,385.048 L372.672,385.048 Z M345.024,394.648 L347.28,394.648 L347.28,392.824 L372.672,392.824 L372.672,394.648 L375.024,394.648 L375.024,383.176 L345.024,383.176 L345.024,394.648 Z M367.824,373.96 C367.296,375.208 366.528,376.744 365.808,377.896 L353.712,377.896 L353.808,377.848 C353.52,376.792 352.704,375.208 351.84,373.96 L367.824,373.96 Z M348.048,367.432 L371.808,367.432 L371.808,372.136 L348.048,372.136 L348.048,367.432 Z M368.112,377.896 C368.784,376.84 369.504,375.64 370.224,374.488 L369.168,373.96 L374.112,373.96 L374.112,365.608 L345.84,365.608 L345.84,373.96 L350.688,373.96 L349.536,374.392 C350.256,375.4 350.928,376.792 351.36,377.896 L338.64,377.896 L338.64,379.96 L381.216,379.96 L381.216,377.896 L368.112,377.896 Z M426.24,360.76 C425.664,363.304 424.896,366.04 424.176,367.864 L426.096,368.44 C427.104,366.136 428.112,362.2 428.928,358.984 L427.44,358.456 L427.008,358.6 L411.744,358.6 C412.368,356.296 412.848,353.896 413.28,351.4 L411.024,351.064 C409.968,357.928 408.144,364.504 405.12,368.872 C405.696,369.112 406.656,369.784 407.088,370.12 C408.768,367.576 410.064,364.36 411.168,360.76 L426.24,360.76 Z M403.248,385.48 C402.24,383.128 400.656,380.2 398.736,377.032 C401.328,371.608 403.296,364.888 404.304,357.112 L402.912,356.632 L402.528,356.776 L386.784,356.776 L386.784,358.888 L401.904,358.888 C400.992,364.84 399.408,370.216 397.296,374.776 C394.752,370.696 391.68,366.424 388.752,362.728 L387.072,363.976 C390.192,367.96 393.456,372.712 396.144,377.176 C393.216,382.888 389.568,387.112 385.584,389.656 C386.112,390.04 386.832,390.856 387.216,391.432 C391.056,388.792 394.608,384.808 397.488,379.48 C399.12,382.264 400.416,384.856 401.328,386.968 L403.248,385.48 Z M417.072,364.024 L414.864,364.024 L414.864,367.192 C414.864,368.008 414.864,368.872 414.816,369.688 L414.816,369.736 C414.528,376.84 412.656,385.96 401.328,393.064 C401.856,393.448 402.576,394.168 402.96,394.696 C411.456,389.224 414.912,382.696 416.208,376.504 C418.416,384.904 422.256,391.336 428.544,394.552 C428.928,393.928 429.648,392.968 430.128,392.584 C422.736,389.176 418.752,380.776 417.024,370.36 C417.072,369.304 417.072,368.2 417.072,367.192 L417.072,364.024 Z M450.24,372.28 L438.768,372.28 L438.768,360.808 L450.24,360.808 L450.24,372.28 Z M438.768,387.256 L438.768,374.392 L450.24,374.392 L450.24,387.256 L438.768,387.256 Z M444.24,350.872 C443.76,353.128 442.752,356.44 441.936,358.696 L436.608,358.696 L436.608,393.352 L438.768,393.352 L438.768,389.416 L452.448,389.416 L452.448,358.696 L444.096,358.696 C444.912,356.632 445.872,353.848 446.688,351.448 L444.24,350.872 Z M476.016,358.696 L461.088,358.696 C461.952,356.296 462.672,353.752 463.248,351.208 L460.992,350.68 C459.504,357.496 457.008,364.168 453.648,368.536 C454.224,368.872 455.232,369.448 455.616,369.784 C457.344,367.336 458.928,364.264 460.32,360.856 L473.76,360.856 C473.04,381.352 472.224,388.792 470.64,390.52 C470.16,391.144 469.584,391.24 468.624,391.24 C467.568,391.24 464.736,391.192 461.568,390.952 C462,391.576 462.24,392.488 462.336,393.208 C464.976,393.4 467.76,393.448 469.248,393.352 C470.736,393.256 471.696,392.92 472.608,391.864 C474.528,389.608 475.2,382.312 476.016,360.04 L476.016,358.696 Z M468.576,380.2 C467.04,377.32 463.584,372.664 460.752,369.208 L458.88,370.264 C461.76,373.72 465.12,378.52 466.656,381.448 L468.576,380.2 Z M482.352,371.032 L482.352,373.576 L525.792,373.576 L525.792,371.032 L482.352,371.032 Z M538.464,382.744 L538.464,366.568 L548.688,364.264 L548.256,362.2 L538.464,364.408 L538.464,352.888 L536.208,352.888 L536.208,364.936 L529.632,366.376 L530.064,368.488 L536.208,367.096 L536.208,381.688 C536.208,383.56 535.104,384.424 534.384,384.808 C534.816,385.336 535.392,386.344 535.584,386.92 C536.448,386.152 537.744,385.528 549.216,380.344 C549.072,379.864 548.832,378.952 548.736,378.376 L538.464,382.744 Z M572.736,355.624 L548.448,355.624 L548.448,357.832 L556.752,357.832 C556.464,371.752 555.6,385.912 543.024,392.584 C543.648,392.92 544.416,393.736 544.848,394.312 C557.664,387.112 558.672,372.568 559.008,357.832 L570.384,357.832 C569.712,380.824 568.896,389.08 567.312,390.904 C566.832,391.576 566.304,391.672 565.392,391.672 C564.384,391.672 561.648,391.672 558.672,391.432 C559.104,392.056 559.344,393.064 559.392,393.784 C561.936,393.928 564.576,393.976 566.112,393.928 C567.552,393.784 568.56,393.4 569.424,392.248 C571.344,389.896 571.968,381.88 572.736,357.064 L572.736,355.624 Z" id="发现、采集你喜欢的一切" sketch:type="MSShapeGroup"></path>
        </g>
    </g>
</svg>