<?xml version="1.0" encoding="UTF-8" standalone="no"?>
<svg width="82px" height="26px" viewBox="0 0 82 26" version="1.1" xmlns="http://www.w3.org/2000/svg" xmlns:xlink="http://www.w3.org/1999/xlink" xmlns:sketch="http://www.bohemiancoding.com/sketch/ns">
    <!-- Generator: Sketch Beta 3.2 (9961) - http://www.bohemiancoding.com/sketch -->
    <title>logo_wt</title>
    <desc>Created with Sketch Beta.</desc>
    <defs></defs>
    <g id="未登录" stroke="none" stroke-width="1" fill="none" fill-rule="evenodd" sketch:type="MSPage">
        <g id="slice" sketch:type="MSArtboardGroup" transform="translate(-48.000000, -298.000000)" fill="#FFFFFF">
            <g id="Group" sketch:type="MSLayerGroup" transform="translate(48.000000, 298.000000)">
                <path d="M10.7756865,20.1113887 C18.7246022,20.1113887 25.1770506,13.4852753 25.1770506,5.30974948 L25.1770506,0.0948731959 L20.0947453,0.0948731959 C12.1446563,0.0948731959 5.69338124,6.72460515 5.69338124,14.893832 L5.69338124,20.1113887 L10.7756865,20.1113887 Z" id="Fill-1" sketch:type="MSShapeGroup"></path>
                <path d="M10.7756865,20.7781144 L6.01525405,20.7781144 C9.32641145,23.9432794 13.7589742,25.8804134 18.6337374,25.8804134 L25.1770506,25.8804134 L25.1770506,19.1646402 C25.1770506,16.8565371 24.7783924,14.6465371 24.0474321,12.5991041 C21.5085609,17.4625784 16.5134703,20.7781144 10.7756865,20.7781144" id="Fill-3" sketch:type="MSShapeGroup"></path>
                <path d="M5.04485119,14.8938052 C5.04485119,8.99636186 8.27101017,3.86122784 13.0066731,1.25372268 C11.0184665,0.503341237 8.87004038,0.0948463918 6.63074944,0.0948463918 L0.0899131955,0.0948463918 L0.0899131955,6.81303196 C0.0899131955,11.8232588 1.97174149,16.3775474 5.04485119,19.7792588 L5.04485119,14.8938052 Z" id="Fill-5" sketch:type="MSShapeGroup"></path>
                <path d="M81.9029297,12.5995196 L81.9029297,10.9939526 L79.2385164,10.9939526 C79.7942652,9.22380825 80.2523701,7.42578763 80.6107453,5.5997567 L79.1312254,5.10146804 L78.5660903,8.11773608 C78.3326054,9.22380825 78.0980776,10.1837979 77.865766,10.9939526 L73.8018773,10.9939526 L73.8018773,12.5995196 L76.8970188,12.5995196 L76.8970188,16.8058907 L74.3671428,16.8058907 L74.3671428,18.4382619 L76.8970188,18.4382619 L76.8970188,25.3539938 L78.5387135,25.3539938 L78.5387135,18.4382619 L81.633855,18.4382619 L81.633855,16.8058907 L78.5387135,16.8058907 L78.5387135,12.5995196 L81.9029297,12.5995196 Z M59.1071905,10.6905299 L60.4804623,10.2752 C60.2819154,8.69027216 59.9679949,7.02010722 59.5367453,5.26845773 L58.2450824,5.68258144 C58.5863797,7.26858144 58.8737056,8.93888041 59.1071905,10.6905299 L59.1071905,10.6905299 Z M73.0761316,9.36158144 C73.0216388,7.92273608 72.9943924,5.73739588 72.9943924,2.80529278 L73.8297755,2.63950928 C73.9541444,2.62007629 74.0614353,2.59327216 74.1520394,2.55668454 L73.6400935,1.00593196 C71.2910347,1.57846804 68.6171046,2.04016907 65.6197374,2.39103505 L65.6197374,7.03726186 C65.6197374,8.07149897 65.611394,8.96568454 65.5936642,9.72330309 C65.5936642,10.645499 65.5758041,11.4835299 65.5398232,12.2400763 C65.450262,13.9370454 65.2979949,15.4402206 65.0823701,16.7485299 C64.5798105,19.7015402 63.5844687,22.2633443 62.095041,24.4403753 L63.4945164,25.4928392 C65.0372636,23.0587567 66.0605037,20.207066 66.5622811,16.9435299 C66.7951141,15.5049526 66.9475116,13.8272825 67.020386,11.9075711 C67.0737056,11.0778495 67.0997787,10.1461381 67.0997787,9.1129732 C67.1186817,8.26515876 67.1275466,7.25048866 67.1275466,6.07124124 L67.1275466,3.74571546 L68.4192095,3.58006598 L68.4459345,23.2513443 L67.7579949,23.3755814 C67.7579949,23.3755814 67.8622874,24.1089423 67.9468948,24.6863031 C68.4956038,24.5876639 70.8720394,23.8360763 71.4397819,23.5413649 C71.5320808,24.0249113 71.6286817,24.4354165 71.7027294,25.1055196 L72.9943924,24.6632515 C72.9943924,24.6632515 71.8140617,20.207066 71.5267358,19.2094165 L70.5942302,19.4639216 C70.8987644,20.7187567 71.1066976,21.5971278 71.249448,22.3827567 C70.7719186,22.6093856 70.2019599,22.8030454 69.9264973,22.8554474 L69.9536134,3.38627216 C70.5467771,3.29366392 71.0562461,3.20239588 71.4871046,3.11099381 C71.5581539,8.21892165 71.7115943,11.9635918 71.9445577,14.3427258 C72.3402175,18.7879216 73.1916356,22.4595505 74.5016801,25.3539938 L75.8471841,24.4403753 C74.626049,22.0245196 73.8190855,18.556468 73.4251205,14.0380969 C73.2461285,12.3411278 73.1287994,10.7831381 73.0761316,9.36158144 L73.0761316,9.36158144 Z M77.1121221,3.35839588 L73.7485577,3.35839588 L73.7485577,4.93461237 L81.5781889,4.93461237 L81.5781889,3.35839588 L78.6733812,3.35839588 L78.5121189,2.63950928 C78.4571046,2.34479794 78.4036547,2.09618969 78.3498137,1.89288041 C78.2070633,1.32034433 78.0446277,0.776890722 77.865766,0.259303093 L76.3045068,0.701437113 L76.7631332,2.08640619 L77.1121221,3.35839588 Z M65.0283987,3.35839588 L62.3646372,3.35839588 C62.2383129,2.78706598 62.1121189,2.27041649 61.9872286,1.81005567 C61.824793,1.20213814 61.6547962,0.629602062 61.4752827,0.0948597938 L59.9679949,0.591808247 L60.4266213,2.00358144 C60.5688502,2.51889072 60.6865704,2.97094227 60.7756102,3.35839588 L57.4381189,3.35839588 L57.4381189,4.93461237 L65.0283987,4.93461237 L65.0283987,3.35839588 Z M64.6254385,16.5000557 L61.9060108,16.5000557 L61.9872286,15.1443031 C62.0061316,14.8130041 62.0322048,13.9103753 62.0671428,12.4338701 L64.9205863,12.4338701 L64.9205863,10.8281691 L62.7129742,10.8281691 C63.215925,9.1129732 63.6372668,7.36132371 63.9784337,5.57174639 L62.4707548,5.15762268 C62.1121189,7.31495258 61.7353622,9.20558144 61.3413971,10.8281691 L57.1429711,10.8281691 L57.1429711,12.4338701 L60.4526944,12.4338701 C60.4526944,13.6885711 60.4436992,14.5547464 60.4266213,15.0346742 C60.4266213,15.2551381 60.4165831,15.4865918 60.3992445,15.7252825 L60.3442302,16.5000557 L57.3853208,16.5000557 L57.3853208,18.133767 L60.2108661,18.133767 C59.9785545,19.5529113 59.6907072,20.6347258 59.3494099,21.3691588 C58.9365418,22.293901 58.2551205,23.1770969 57.3054067,24.0261175 L58.5970696,25.3539938 C59.6195275,24.3026021 60.3721285,23.1770969 60.8566976,21.9782825 C61.0736261,21.4447464 61.2513145,20.8454062 61.3947167,20.1802619 C61.5203892,19.6272928 61.6465831,18.9437876 61.7721253,18.133767 L64.6254385,18.133767 L64.6254385,16.5000557 Z M74.5016801,5.5997567 C74.6810633,6.31971546 74.8607072,7.16766392 75.0400903,8.14588041 L75.255324,9.47362268 C75.2730537,9.63927216 75.3085132,9.85973608 75.3631364,10.1374268 C75.4169774,10.4518392 75.4519154,10.6723031 75.4696452,10.801499 L76.844351,10.3860351 C76.6635339,9.38945773 76.5017501,8.5416433 76.3579568,7.84125155 C76.1794862,6.89948866 75.9810696,6.02500412 75.7666181,5.21243711 L74.5016801,5.5997567 Z M47.723661,0.259303093 L46.0020521,0.259303093 L46.0020521,3.55312784 L39.1380394,3.55312784 L39.1380394,0.259303093 L37.4163002,0.259303093 L37.4163002,3.55312784 L30.8504337,3.55312784 L30.8504337,5.35128247 L37.4163002,5.35128247 L37.4163002,8.11773608 L38.0621316,8.11773608 C37.1296261,9.72330309 35.9990951,11.3094371 34.6713208,12.8772103 C33.486297,14.2781278 32.0881253,15.7362722 30.4728948,17.2469526 L31.6834703,18.6868701 C32.4008725,18.0411588 33.1463033,17.3029732 33.9165037,16.4732515 L36.2182397,14.0576639 L36.2182397,25.5756639 L37.9691809,25.5756639 L37.9691809,12.0391794 C38.5189329,11.0840144 38.955006,10.4128392 39.67658,8.86449897 L38.4388884,8.11773608 L39.1380394,8.11773608 L39.1380394,5.35128247 L46.0020521,5.35128247 L46.0020521,8.18595258 L47.723661,8.18595258 L47.723661,5.35128247 L54.2629329,5.35128247 L54.2629329,3.55312784 L47.723661,3.55312784 L47.723661,0.259303093 Z M52.6075498,22.1732825 C52.4831809,22.9418907 52.144882,23.3719629 51.121642,23.3719629 L46.9589361,23.3719629 C46.3911936,23.3719629 45.7033844,22.8480763 45.7033844,21.5665711 L45.7033844,16.8607052 C49.0266658,15.4390144 51.504917,13.5265402 53.469006,11.8587876 L52.514599,10.3860351 C51.3556483,11.5128804 48.1047199,13.9078289 45.7033844,14.9798598 L45.7033844,8.17255052 L43.9265005,8.17255052 L43.9265005,15.5146021 L40.9943161,16.5123856 L41.4688471,18.1422103 L43.9265005,17.2883649 L43.9265005,22.0927361 C43.9265005,23.9895299 45.2803479,24.9945505 46.9031396,24.9945505 L51.2988089,24.9945505 C52.5045609,24.9945505 53.8368979,24.4938495 54.0887644,22.7786536 C54.1978804,22.0416742 54.1937087,21.0634577 54.1937087,20.2996742 L52.7260521,19.5199423 C52.707801,20.8856124 52.7420871,21.3217155 52.6075498,22.1732825 L52.6075498,22.1732825 Z" id="Fill-7" sketch:type="MSShapeGroup"></path>
            </g>
        </g>
    </g>
</svg>